<?xml version="1.0" standalone="no"?><!DOCTYPE svg PUBLIC "-//W3C//DTD SVG 1.1//EN" "http://www.w3.org/Graphics/SVG/1.1/DTD/svg11.dtd"><svg xmlns:xlink="http://www.w3.org/1999/xlink" version="1.1" style="font-family:'lucida grande', 'lucida sans unicode', arial, helvetica, sans-serif;font-size:12px;" xmlns="http://www.w3.org/2000/svg" width="600" height="400"><desc>Created with Highcharts 4.2.7</desc><defs><clipPath id="highcharts-7"><rect x="1" y="1" width="578" height="270"></rect></clipPath></defs><rect x="10" y="36" width="580" height="272" fill="#ffffff"></rect><rect x="10" y="36" width="580" height="272" stroke="#026FC1" stroke-width="2" fill="none"></rect><g class="highcharts-series-group"><g class="highcharts-series highcharts-series-0" transform="translate(10,36) scale(1 1)"><path fill="#50B432" d="M 289.980651045649 41.00000197043178 A 95 95 0 0 1 295.2979011158918 41.14784006799722 L 290 136 A 0 0 0 0 0 290 136 Z" stroke="#FFFFFF" stroke-width="1" stroke-linejoin="round" transform="translate(0,0)"></path><path fill="#ED561B" d="M 295.3927506110648 41.15318539430615 A 95 95 0 0 1 301.0704415772713 41.647229382046106 L 290 136 A 0 0 0 0 0 290 136 Z" stroke="#FFFFFF" stroke-width="1" stroke-linejoin="round" transform="translate(0,0)"></path><path fill="#DDDF00" d="M 301.16478879694347 41.658346998159686 A 95 95 0 0 1 314.4957530906036 44.21242959679027 L 290 136 A 0 0 0 0 0 290 136 Z" stroke="#FFFFFF" stroke-width="1" stroke-linejoin="round" transform="translate(0,0)"></path><path fill="#24CBE5" d="M 314.58752839783335 44.23697123957962 A 95 95 0 0 1 328.9796543044398 49.3652116623676 L 290 136 A 0 0 0 0 0 290 136 Z" stroke="#FFFFFF" stroke-width="1" stroke-linejoin="round" transform="translate(0,0)"></path><path fill="#64E572" d="M 329.0662695885128 49.404234627565984 A 95 95 0 0 1 342.5219958726014 56.83915140956077 L 290 136 A 0 0 0 0 0 290 136 Z" stroke="#FFFFFF" stroke-width="1" stroke-linejoin="round" transform="translate(0,0)"></path><path fill="#FF9655" d="M 342.6011304470026 56.89171297710071 A 95 95 0 0 1 355.98239336684907 67.65291691972223 L 290 136 A 0 0 0 0 0 290 136 Z" stroke="#FFFFFF" stroke-width="1" stroke-linejoin="round" transform="translate(0,0)"></path><path fill="#FFF263" d="M 356.0507074473442 67.7189334756307 A 95 95 0 0 1 367.9209451616821 81.65548505037393 L 290 136 A 0 0 0 0 0 290 136 Z" stroke="#FFFFFF" stroke-width="1" stroke-linejoin="round" transform="translate(0,0)"></path><path fill="#6AF9C4" d="M 367.975250707105 81.733433154804 A 95 95 0 0 1 377.16430248418925 98.21925923906782 L 290 136 A 0 0 0 0 0 290 136 Z" stroke="#FFFFFF" stroke-width="1" stroke-linejoin="round" transform="translate(0,0)"></path><path fill="#2F7ED8" d="M 377.2020396365058 98.30644241739344 A 95 95 0 0 1 383.7407642605609 120.5834791264063 L 290 136 A 0 0 0 0 0 290 136 Z" stroke="#FFFFFF" stroke-width="1" stroke-linejoin="round" transform="translate(0,0)"></path><path fill="#0D233A" d="M 383.75613390848685 120.67722758330319 A 95 95 0 0 1 384.65701907771756 144.06527986622953 L 290 136 A 0 0 0 0 0 290 136 Z" stroke="#FFFFFF" stroke-width="1" stroke-linejoin="round" transform="translate(0,0)"></path><path fill="#8BBC21" d="M 384.64890647069 144.15993283689147 A 95 95 0 0 1 378.11703120072025 171.50195504998698 L 290 136 A 0 0 0 0 0 290 136 Z" stroke="#FFFFFF" stroke-width="1" stroke-linejoin="round" transform="translate(0,0)"></path><path fill="#910000" d="M 378.0814851930753 171.59005431552546 A 95 95 0 0 1 363.80963601931126 195.80917681005812 L 290 136 A 0 0 0 0 0 290 136 Z" stroke="#FFFFFF" stroke-width="1" stroke-linejoin="round" transform="translate(0,0)"></path><path fill="#1AADCE" d="M 363.74978994765445 195.88295652918993 A 95 95 0 0 1 330.6185806306969 221.8785823564151 L 290 136 A 0 0 0 0 0 290 136 Z" stroke="#FFFFFF" stroke-width="1" stroke-linejoin="round" transform="translate(0,0)"></path><path fill="#B3DE59" d="M 330.53268175336495 221.91915799098845 A 95 95 0 0 1 276.8183191795241 230.08104639483503 L 290 136 A 0 0 0 0 0 290 136 Z" stroke="#FFFFFF" stroke-width="1" stroke-linejoin="round" transform="translate(0,0)"></path><path fill="#B34E65" d="M 276.7242447396493 230.0678176756922 A 95 95 0 0 1 210.41094670997757 187.87082606242137 L 290 136 A 0 0 0 0 0 290 136 Z" stroke="#FFFFFF" stroke-width="1" stroke-linejoin="round" transform="translate(0,0)"></path><path fill="#014DAD" d="M 210.35911568708366 187.79121108698533 A 95 95 0 0 1 200.23139093117086 104.90985966825286 L 290 136 A 0 0 0 0 0 290 136 Z" stroke="#FFFFFF" stroke-width="1" stroke-linejoin="round" transform="translate(0,0)"></path><path fill="#FDBE57" d="M 200.26252595062172 104.82010661921436 A 95 95 0 0 1 289.8680469058832 41.00009164014445 L 290 136 A 0 0 0 0 0 290 136 Z" stroke="#FFFFFF" stroke-width="1" stroke-linejoin="round" transform="translate(0,0)"></path></g><g class="highcharts-markers highcharts-series-0" transform="translate(10,36) scale(1 1)"></g></g><text x="300" text-anchor="middle" class="highcharts-title" style="color:#000000;font-size:10px;font-family:'arial', sans-serif;fill:#000000;width:536px;" y="17"><tspan>Variable importance</tspan></text><g class="highcharts-data-labels highcharts-series-0" transform="translate(10,36) scale(1 1)" opacity="1"><path fill="none" d="M 318.5573228516829 11 C 313.5573228516829 11 312.0496541891752 21.096506797496417 309.9766097782271 31.89939932080872 L 307.903565367279 42.70229184412102" stroke="#DDDF00" stroke-width="1"></path><path fill="none" d="M 364.34695379034326 32 C 359.34695379034326 32 329.3377043269125 25.81132082519362 325.6392876807925 36.1709402347908 L 321.9408710346725 46.53055964438798" stroke="#24CBE5" stroke-width="1"></path><path fill="none" d="M 388.46657156438334 53 C 383.46657156438334 53 346.6632488910616 33.636548391969455 341.33593489275665 43.26046264571592 L 336.0086208944517 52.88437689946238" stroke="#64E572" stroke-width="1"></path><path fill="none" d="M 403.54031509075327 74 C 398.54031509075327 74 363.3614910397415 44.856752129266695 356.4642568394239 53.42577543335273 L 349.5670226391063 61.99479873743877" stroke="#FF9655" stroke-width="1"></path><path fill="none" d="M 413.08471535300407 95 C 408.08471535300407 95 379.08104573698824 60.14772719025089 370.70590468479276 67.27913745441533 L 362.33076363259727 74.41054771857978" stroke="#FFF263" stroke-width="1"></path><path fill="none" d="M 418.38962679253063 116 C 413.38962679253063 116 392.21366898604845 79.06700541504506 382.603836859155 84.41968011961347 L 372.9940047322616 89.77235482418189" stroke="#6AF9C4" stroke-width="1"></path><path fill="none" d="M 419.99599993599793 137 C 414.99599993599793 137 402.2870121651077 103.12710996834993 391.7301135854822 106.21772356106916 L 381.17321500585666 109.3083371537884" stroke="#2F7ED8" stroke-width="1"></path><path fill="none" d="M 418.0487708187286 158 C 413.0487708187286 158 406.9170513494611 131.59510457020014 395.9248499405374 132.0092400379591 L 384.9326485316137 132.42337550571807" stroke="#0D233A" stroke-width="1"></path><path fill="none" d="M 412.3712060089697 179 C 407.3712060089697 179 403.7842248667069 163.2424332885791 393.08656269975154 160.68117887683235 L 382.3889005327962 158.1199244650856" stroke="#8BBC21" stroke-width="1"></path><path fill="none" d="M 402.3731810090397 200 C 397.3731810090397 200 390.77565324676164 195.44129635773825 381.30101918082676 189.85279840957483 L 371.8263851148919 184.2643004614114" stroke="#910000" stroke-width="1"></path><path fill="none" d="M 386.6515138991168 221 C 381.6515138991168 221 362.16237648153975 228.09555592175178 355.3778795473779 219.4369993820999 L 348.5933826132161 210.77844284244804" stroke="#1AADCE" stroke-width="1"></path><path fill="none" d="M 313.7088610352371 259.5919840392741 C 308.7088610352371 259.5919840392741 307.5114939289822 251.68209706076055 305.8651141578813 240.80600246530443 L 304.2187343867804 229.9299078698483" stroke="#B3DE59" stroke-width="1"></path><path fill="none" d="M 217.86725262512334 241.4428481685742 C 222.86725262512334 241.4428481685742 227.16374845711545 234.69450588578542 233.07143022610458 225.4155352469509 L 238.97911199509372 216.13656460811637" stroke="#B34E65" stroke-width="1"></path><path fill="none" d="M 160.91739290055233 151.11643527436613 C 165.91739290055233 151.11643527436613 173.85867975491698 150.14898341680671 184.77794917966838 148.8187371126625 L 195.6972186044198 147.48849080851826" stroke="#014DAD" stroke-width="1"></path><path fill="none" d="M 212.5576068885609 34.13194965894496 C 217.5576068885609 34.13194965894496 222.19392004769298 40.65150488077248 228.56885064149964 49.615893310785324 L 234.9437812353063 58.58028174079817" stroke="#FDBE57" stroke-width="1"></path><g style="cursor:pointer;" transform="translate(0,-9999)"><text x="5" style="font-size:10px;font-weight:bold;font-family:'arial', sans-serif;color:#000;text-shadow:none;fill:#000;text-rendering:geometricprecision;" y="15"><tspan>XSurg: 0.9%</tspan></text></g><g style="cursor:pointer;" transform="translate(0,-9999)"><text x="5" style="font-size:10px;font-weight:bold;font-family:'arial', sans-serif;color:#000;text-shadow:none;fill:#000;text-rendering:geometricprecision;" y="15"><tspan>XWorr: 1.0%</tspan></text></g><g style="cursor:pointer;" transform="translate(324,1)"><text x="5" style="font-size:10px;font-weight:bold;font-family:'arial', sans-serif;color:#000;text-shadow:none;fill:#000;text-rendering:geometricprecision;" y="15"><tspan>XTen: 2.3%</tspan></text></g><g style="cursor:pointer;" transform="translate(369,22)"><text x="5" style="font-size:10px;font-weight:bold;font-family:'arial', sans-serif;color:#000;text-shadow:none;fill:#000;text-rendering:geometricprecision;" y="15"><tspan>XPHTBC: 2.6%</tspan></text></g><g style="cursor:pointer;" transform="translate(393,43)"><text x="5" style="font-size:10px;font-weight:bold;font-family:'arial', sans-serif;color:#000;text-shadow:none;fill:#000;text-rendering:geometricprecision;" y="15"><tspan>XTP: 2.6%</tspan></text></g><g style="cursor:pointer;" transform="translate(409,64)"><text x="5" style="font-size:10px;font-weight:bold;font-family:'arial', sans-serif;color:#000;text-shadow:none;fill:#000;text-rendering:geometricprecision;" y="15"><tspan>XPan: 2.9%</tspan></text></g><g style="cursor:pointer;" transform="translate(418,85)"><text x="5" style="font-size:10px;font-weight:bold;font-family:'arial', sans-serif;color:#000;text-shadow:none;fill:#000;text-rendering:geometricprecision;" y="15"><tspan>XRad: 3.1%</tspan></text></g><g style="cursor:pointer;" transform="translate(423,106)"><text x="5" style="font-size:10px;font-weight:bold;font-family:'arial', sans-serif;color:#000;text-shadow:none;fill:#000;text-rendering:geometricprecision;" y="15"><tspan>XPill: 3.2%</tspan></text></g><g style="cursor:pointer;" transform="translate(425,127)"><text x="5" style="font-size:10px;font-weight:bold;font-family:'arial', sans-serif;color:#000;text-shadow:none;fill:#000;text-rendering:geometricprecision;" y="15"><tspan>XAnx: 3.9%</tspan></text></g><g style="cursor:pointer;" transform="translate(423,148)"><text x="5" style="font-size:10px;font-weight:bold;font-family:'arial', sans-serif;color:#000;text-shadow:none;fill:#000;text-rendering:geometricprecision;" y="15"><tspan>XRM: 3.9%</tspan></text></g><g style="cursor:pointer;" transform="translate(417,169)"><text x="5" style="font-size:10px;font-weight:bold;font-family:'arial', sans-serif;color:#000;text-shadow:none;fill:#000;text-rendering:geometricprecision;" y="15"><tspan>XHorm: 4.7%</tspan></text></g><g style="cursor:pointer;" transform="translate(407,190)"><text x="5" style="font-size:10px;font-weight:bold;font-family:'arial', sans-serif;color:#000;text-shadow:none;fill:#000;text-rendering:geometricprecision;" y="15"><tspan>XDrug: 4.7%</tspan></text></g><g style="cursor:pointer;" transform="translate(392,211)"><text x="5" style="font-size:10px;font-weight:bold;font-family:'arial', sans-serif;color:#000;text-shadow:none;fill:#000;text-rendering:geometricprecision;" y="15"><tspan>XChem: 7.1%</tspan></text></g><g style="cursor:pointer;" transform="translate(319,250)"><text x="5" style="font-size:10px;font-weight:bold;font-family:'arial', sans-serif;color:#000;text-shadow:none;fill:#000;text-rendering:geometricprecision;" y="15"><tspan>XVA: 9.2%</tspan></text></g><g style="cursor:pointer;" transform="translate(143,231)"><text x="5" style="font-size:10px;font-weight:bold;font-family:'arial', sans-serif;color:#000;text-shadow:none;fill:#000;text-rendering:geometricprecision;" y="15"><tspan>Xage: 13.6%</tspan></text></g><g style="cursor:pointer;" transform="translate(85,141)"><text x="5" style="font-size:10px;font-weight:bold;font-family:'arial', sans-serif;color:#000;text-shadow:none;fill:#000;text-rendering:geometricprecision;" y="15"><tspan>XBMI: 14.5%</tspan></text></g><g style="cursor:pointer;" transform="translate(122,24)"><text x="5" style="font-size:10px;font-weight:bold;font-family:'arial', sans-serif;color:#000;text-shadow:none;fill:#000;text-rendering:geometricprecision;" y="15"><tspan>XBasFat: 19.7%</tspan></text></g></g><g class="highcharts-legend" transform="translate(43,320)"><g><g><g class="highcharts-legend-item" transform="translate(8,3)"><text x="21" style="color:#333;font-size:9pt;font-weight:normal;cursor:pointer;font-family:'lucida grande','lucida sans unicode',arial,helvetica,sans-serif;text-transform:none;fill:#333;" text-anchor="start" y="15">XSurg</text><rect x="0" y="4" width="16" height="12" fill="#50B432"></rect></g><g class="highcharts-legend-item" transform="translate(83.828125,3)"><text x="21" y="15" style="color:#333;font-size:9pt;font-weight:normal;cursor:pointer;font-family:'lucida grande','lucida sans unicode',arial,helvetica,sans-serif;text-transform:none;fill:#333;" text-anchor="start">XWorr</text><rect x="0" y="4" width="16" height="12" fill="#ED561B"></rect></g><g class="highcharts-legend-item" transform="translate(160.890625,3)"><text x="21" y="15" style="color:#333;font-size:9pt;font-weight:normal;cursor:pointer;font-family:'lucida grande','lucida sans unicode',arial,helvetica,sans-serif;text-transform:none;fill:#333;" text-anchor="start">XTen</text><rect x="0" y="4" width="16" height="12" fill="#DDDF00"></rect></g><g class="highcharts-legend-item" transform="translate(232.125,3)"><text x="21" y="15" style="color:#333;font-size:9pt;font-weight:normal;cursor:pointer;font-family:'lucida grande','lucida sans unicode',arial,helvetica,sans-serif;text-transform:none;fill:#333;" text-anchor="start">XPHTBC</text><rect x="0" y="4" width="16" height="12" fill="#24CBE5"></rect></g><g class="highcharts-legend-item" transform="translate(319.890625,3)"><text x="21" y="15" style="color:#333;font-size:9pt;font-weight:normal;cursor:pointer;font-family:'lucida grande','lucida sans unicode',arial,helvetica,sans-serif;text-transform:none;fill:#333;" text-anchor="start">XTP</text><rect x="0" y="4" width="16" height="12" fill="#64E572"></rect></g><g class="highcharts-legend-item" transform="translate(384,3)"><text x="21" y="15" style="color:#333;font-size:9pt;font-weight:normal;cursor:pointer;font-family:'lucida grande','lucida sans unicode',arial,helvetica,sans-serif;text-transform:none;fill:#333;" text-anchor="start">XPan</text><rect x="0" y="4" width="16" height="12" fill="#FF9655"></rect></g><g class="highcharts-legend-item" transform="translate(454.21875,3)"><text x="21" y="15" style="color:#333;font-size:9pt;font-weight:normal;cursor:pointer;font-family:'lucida grande','lucida sans unicode',arial,helvetica,sans-serif;text-transform:none;fill:#333;" text-anchor="start">XRad</text><rect x="0" y="4" width="16" height="12" fill="#FFF263"></rect></g><g class="highcharts-legend-item" transform="translate(8,21)"><text x="21" y="15" style="color:#333;font-size:9pt;font-weight:normal;cursor:pointer;font-family:'lucida grande','lucida sans unicode',arial,helvetica,sans-serif;text-transform:none;fill:#333;" text-anchor="start">XPill</text><rect x="0" y="4" width="16" height="12" fill="#6AF9C4"></rect></g><g class="highcharts-legend-item" transform="translate(74.5625,21)"><text x="21" y="15" style="color:#333;font-size:9pt;font-weight:normal;cursor:pointer;font-family:'lucida grande','lucida sans unicode',arial,helvetica,sans-serif;text-transform:none;fill:#333;" text-anchor="start">XAnx</text><rect x="0" y="4" width="16" height="12" fill="#2F7ED8"></rect></g><g class="highcharts-legend-item" transform="translate(147.8125,21)"><text x="21" y="15" style="color:#333;font-size:9pt;font-weight:normal;cursor:pointer;font-family:'lucida grande','lucida sans unicode',arial,helvetica,sans-serif;text-transform:none;fill:#333;" text-anchor="start">XRM</text><rect x="0" y="4" width="16" height="12" fill="#0D233A"></rect></g><g class="highcharts-legend-item" transform="translate(215.25,21)"><text x="21" y="15" style="color:#333;font-size:9pt;font-weight:normal;cursor:pointer;font-family:'lucida grande','lucida sans unicode',arial,helvetica,sans-serif;text-transform:none;fill:#333;" text-anchor="start">XHorm</text><rect x="0" y="4" width="16" height="12" fill="#8BBC21"></rect></g><g class="highcharts-legend-item" transform="translate(297.078125,21)"><text x="21" y="15" style="color:#333;font-size:9pt;font-weight:normal;cursor:pointer;font-family:'lucida grande','lucida sans unicode',arial,helvetica,sans-serif;text-transform:none;fill:#333;" text-anchor="start">XDrug</text><rect x="0" y="4" width="16" height="12" fill="#910000"></rect></g><g class="highcharts-legend-item" transform="translate(375.421875,21)"><text x="21" y="15" style="color:#333;font-size:9pt;font-weight:normal;cursor:pointer;font-family:'lucida grande','lucida sans unicode',arial,helvetica,sans-serif;text-transform:none;fill:#333;" text-anchor="start">XChem</text><rect x="0" y="4" width="16" height="12" fill="#1AADCE"></rect></g><g class="highcharts-legend-item" transform="translate(458.578125,21)"><text x="21" y="15" style="color:#333;font-size:9pt;font-weight:normal;cursor:pointer;font-family:'lucida grande','lucida sans unicode',arial,helvetica,sans-serif;text-transform:none;fill:#333;" text-anchor="start">XVA</text><rect x="0" y="4" width="16" height="12" fill="#B3DE59"></rect></g><g class="highcharts-legend-item" transform="translate(8,39)"><text x="21" y="15" style="color:#333;font-size:9pt;font-weight:normal;cursor:pointer;font-family:'lucida grande','lucida sans unicode',arial,helvetica,sans-serif;text-transform:none;fill:#333;" text-anchor="start">Xage</text><rect x="0" y="4" width="16" height="12" fill="#B34E65"></rect></g><g class="highcharts-legend-item" transform="translate(78.625,39)"><text x="21" y="15" style="color:#333;font-size:9pt;font-weight:normal;cursor:pointer;font-family:'lucida grande','lucida sans unicode',arial,helvetica,sans-serif;text-transform:none;fill:#333;" text-anchor="start">XBMI</text><rect x="0" y="4" width="16" height="12" fill="#014DAD"></rect></g><g class="highcharts-legend-item" transform="translate(148.84375,39)"><text x="21" y="15" style="color:#333;font-size:9pt;font-weight:normal;cursor:pointer;font-family:'lucida grande','lucida sans unicode',arial,helvetica,sans-serif;text-transform:none;fill:#333;" text-anchor="start">XBasFat</text><rect x="0" y="4" width="16" height="12" fill="#FDBE57"></rect></g></g></g></g><g class="highcharts-tooltip" display="none" style="cursor:default;padding:0;pointer-events:none;white-space:nowrap;" transform="translate(0,0)"><path fill="none" d="M 3.5 0.5 L 13.5 0.5 C 16.5 0.5 16.5 0.5 16.5 3.5 L 16.5 13.5 C 16.5 16.5 16.5 16.5 13.5 16.5 L 3.5 16.5 C 0.5 16.5 0.5 16.5 0.5 13.5 L 0.5 3.5 C 0.5 0.5 0.5 0.5 3.5 0.5"  stroke="black" stroke-opacity="0.049999999999999996" stroke-width="5" transform="translate(1, 1)"></path><path fill="none" d="M 3.5 0.5 L 13.5 0.5 C 16.5 0.5 16.5 0.5 16.5 3.5 L 16.5 13.5 C 16.5 16.5 16.5 16.5 13.5 16.5 L 3.5 16.5 C 0.5 16.5 0.5 16.5 0.5 13.5 L 0.5 3.5 C 0.5 0.5 0.5 0.5 3.5 0.5"  stroke="black" stroke-opacity="0.09999999999999999" stroke-width="3" transform="translate(1, 1)"></path><path fill="none" d="M 3.5 0.5 L 13.5 0.5 C 16.5 0.5 16.5 0.5 16.5 3.5 L 16.5 13.5 C 16.5 16.5 16.5 16.5 13.5 16.5 L 3.5 16.5 C 0.5 16.5 0.5 16.5 0.5 13.5 L 0.5 3.5 C 0.5 0.5 0.5 0.5 3.5 0.5"  stroke="black" stroke-opacity="0.15" stroke-width="1" transform="translate(1, 1)"></path><path fill="rgb(249, 249, 249)" fill-opacity=" .85" d="M 3.5 0.5 L 13.5 0.5 C 16.5 0.5 16.5 0.5 16.5 3.5 L 16.5 13.5 C 16.5 16.5 16.5 16.5 13.5 16.5 L 3.5 16.5 C 0.5 16.5 0.5 16.5 0.5 13.5 L 0.5 3.5 C 0.5 0.5 0.5 0.5 3.5 0.5"></path><text x="8" style="font-size:12px;color:#000000;fill:#000000;" y="20"></text></g><text x="590" text-anchor="end" style="cursor:pointer;color:#909090;font-size:9px;fill:#909090;" y="395">meta-chart.com</text></svg>